Coordinates
version=1
nRows=8
nColumns=42
inDegrees=yes

Units are S.I. units (second, meters, Newtons, ...)
If the header above contains a line with 'inDegrees', this indicates whether rotational values are in degrees (yes) or radians (no).

endheader
time	pelvis_tilt	pelvis_list	pelvis_rotation	pelvis_tx	pelvis_ty	pelvis_tz	hip_flexion_r	hip_adduction_r	hip_rotation_r	knee_angle_r	knee_adduction_r	knee_angle_r_beta	ankle_angle_r	subtalar_angle_r	mtp_angle_r	hip_flexion_l	hip_adduction_l	hip_rotation_l	knee_angle_l	knee_adduction_l	knee_angle_l_beta	ankle_angle_l	subtalar_angle_l	mtp_angle_l	lumbar_extension	lumbar_bending	lumbar_rotation	arm_flex_r	arm_add_r	arm_rot_r	elbow_flex_r	pro_sup_r	wrist_flex_r	wrist_dev_r	arm_flex_l	arm_add_l	arm_rot_l	elbow_flex_l	pro_sup_l	wrist_flex_l	wrist_dev_l
      0.72000000	      8.72019217	     -0.95159087	     -2.41913527	     -1.91417772	      0.88521230	      0.20086481	     -9.46007097	      7.75900191	    -22.03257350	     11.79395126	     -7.80689253	      0.20584328	     18.55086141	     27.25745502	     -7.60992171	     18.87429803	     -1.15199372	     -2.29325345	     55.16302344	      0.69472521	      0.96277638	     10.27555006	    -14.55039737	     -7.60992171	    -28.38577978	     -0.67610263	      6.98208119	     18.23541741	    -18.33814799	     15.13476793	     44.62267549	     90.00000001	      0.00000000	      0.00000000	      1.71659642	    -12.94549312	     14.98157286	     30.42348708	     90.00000001	      0.00000000	      0.00000000
      0.73000000	      9.24151187	     -0.75809890	     -2.75079294	     -1.90169538	      0.88526984	      0.20217936	    -11.42101557	      7.31421517	    -22.15528154	     11.07504209	     -7.26545774	      0.19329595	     18.82397468	     28.57692912	     -7.60528946	     18.65392798	     -0.70255909	     -3.14130199	     51.34222176	      0.25158261	      0.89609082	     10.00632431	    -14.30345480	     -7.60528946	    -28.91392257	     -1.03897512	      7.25781548	     18.88225882	    -18.69507003	     15.29905701	     45.71636126	     90.00000001	      0.00000000	      0.00000000	      0.70371502	    -12.81205001	     15.30117605	     30.24079014	     90.00000001	      0.00000000	      0.00000000
      0.74000000	      9.37324341	     -0.76650257	     -2.99481617	     -1.88970823	      0.88427862	      0.20352278	    -12.67972443	      7.29363347	    -22.22238219	     10.70205447	     -7.14553921	      0.18678609	     19.28197325	     29.18099063	     -7.60100040	     18.94359567	     -0.51474970	     -3.78903690	     47.60733088	     -0.14497942	      0.83090467	      9.95643429	    -13.73175525	     -7.60100040	    -29.06108574	     -1.15535641	      7.56722168	     19.52645758	    -19.01247634	     15.34054982	     46.66055817	     90.00000001	      0.00000000	      0.00000000	     -0.26149004	    -12.61359953	     15.49183248	     30.02074310	     90.00000001	      0.00000000	      0.00000000
      0.75000000	      9.47666757	     -0.79556275	     -3.18829580	     -1.87768527	      0.88301726	      0.20474776	    -13.83086701	      7.30158625	    -22.33055368	     10.46150202	     -7.07655436	      0.18258766	     19.71359088	     29.69137311	     -7.59490650	     19.14681633	     -0.32125594	     -4.61822228	     43.66445710	     -0.71824403	      0.76208854	      9.85099901	    -12.87099886	     -7.59490650	    -29.18015177	     -1.22893458	      7.81987749	     20.18229756	    -19.28803296	     15.40638417	     47.49544225	     90.00000001	      0.00000000	      0.00000000	     -1.24262579	    -12.43150070	     15.63426256	     29.88222607	     90.00000001	      0.00000000	      0.00000000
      0.76000000	      9.53327799	     -0.87843350	     -3.30279898	     -1.86573983	      0.88147878	      0.20577707	    -14.86646391	      7.39274041	    -22.34731164	     10.35397901	     -7.04048372	      0.18071102	     20.18199531	     29.81558332	     -7.59059690	     19.27111819	     -0.15436725	     -5.27971343	     39.54106608	     -1.19470977	      0.69012179	      9.87808704	    -11.90811723	     -7.59059690	    -29.26472003	     -1.21169721	      8.02531601	     20.81686911	    -19.54566799	     15.44054660	     48.29998450	     90.00000001	      0.00000000	      0.00000000	     -2.15698182	    -12.21169840	     15.66848066	     29.68690790	     90.00000001	      0.00000000	      0.00000000
      0.77000000	      9.44283074	     -1.04465666	     -3.37445036	     -1.85396818	      0.87952424	      0.20673455	    -15.60309819	      7.64245993	    -22.28449514	     10.45525758	     -7.15854543	      0.18247867	     20.69356854	     29.72757267	     -7.58786962	     19.48823018	     -0.11309644	     -5.74245565	     35.38532130	     -1.49223997	      0.61759036	      9.84793404	    -10.71667379	     -7.58786962	    -29.21413621	     -1.07885112	      8.21501913	     21.45521170	    -19.76968998	     15.46214507	     48.99570865	     90.00000001	      0.00000000	      0.00000000	     -3.03084084	    -11.97027705	     15.68259822	     29.47533830	     90.00000001	      0.00000000	      0.00000000
      0.78000000	      9.48968188	     -1.17138391	     -3.38611441	     -1.84188274	      0.87764956	      0.20735452	    -16.52027554	      7.74834621	    -22.39641622	     10.59355884	     -7.12684163	      0.18489248	     21.11909981	     29.64576499	     -7.58491299	     19.38917733	      0.11008753	     -6.35419041	     31.10064841	     -2.02861910	      0.54280871	      9.84057659	     -9.26629515	     -7.58491299	    -29.27738452	     -0.95038745	      8.31404692	     22.09318068	    -19.95982498	     15.50044316	     49.57903574	     90.00000001	      0.00000000	      0.00000000	     -3.92394433	    -11.73931606	     15.66260787	     29.37619177	     90.00000001	      0.00000000	      0.00000000
      0.79000000	      9.52202574	     -1.29740108	     -3.35604356	     -1.82971935	      0.87559951	      0.20787962	    -17.37483885	      7.87637943	    -22.59962802	     10.78898515	     -7.18882521	      0.18830331	     21.49917517	     29.82297358	     -7.57943191	     19.27785011	      0.33187755	     -7.08117316	     26.97577690	     -2.55831220	      0.47081613	      9.86794576	     -7.34196237	     -7.57943191	    -29.31869536	     -0.80831993	      8.32909342	     22.71462466	    -20.08441468	     15.55465587	     50.10258408	     90.00000001	      0.00000000	      0.00000000	     -4.80546057	    -11.53322863	     15.60232859	     29.34052042	     90.00000001	      0.00000000	      0.00000000
